<mxfile host="app.diagrams.net">
  <diagram id="er" name="ER Diagram">
    <mxGraphModel>
      <root>
        <mxCell id="0" />
        <mxCell id="1" parent="0" />
        <mxCell id="2" value="User" style="shape=rectangle;fillColor=#dae8fc;strokeColor=#6c8ebf;" vertex="1" parent="1">
          <mxGeometry x="40" y="40" width="120" height="80" as="geometry" />
        </mxCell>
        <mxCell id="3" value="id (PK)&#xa;openid&#xa;name&#xa;role&#xa;created_at" style="shape=note;fillColor=#ffffff;strokeColor=#000000;" vertex="1" parent="2">
          <mxGeometry x="0" y="0" width="120" height="80" as="geometry" relative="1" />
        </mxCell>
        <mxCell id="4" value="Package" style="shape=rectangle;fillColor=#fff2cc;strokeColor=#d6b656;" vertex="1" parent="1">
          <mxGeometry x="240" y="40" width="120" height="80" as="geometry" />
        </mxCell>
        <mxCell id="5" value="id (PK)&#xa;name&#xa;price&#xa;description&#xa;owner_id (FK)&#xa;created_at" style="shape=note;fillColor=#ffffff;strokeColor=#000000;" vertex="1" parent="4">
          <mxGeometry x="0" y="0" width="120" height="80" as="geometry" relative="1" />
        </mxCell>
        <mxCell id="6" value="Task" style="shape=rectangle;fillColor=#f8cecc;strokeColor=#b85450;" vertex="1" parent="1">
          <mxGeometry x="440" y="40" width="140" height="100" as="geometry" />
        </mxCell>
        <mxCell id="7" value="id (PK)&#xa;user_id (FK)&#xa;package_id (FK)&#xa;status&#xa;result_url&#xa;params (JSON)&#xa;created_at&#xa;updated_at" style="shape=note;fillColor=#ffffff;strokeColor=#000000;" vertex="1" parent="6">
          <mxGeometry x="0" y="0" width="140" height="100" as="geometry" relative="1" />
        </mxCell>
        <mxCell id="8" value="" style="edgeStyle=orthogonalEdgeStyle;endArrow=block;" edge="1" parent="1" source="2" target="4">
          <mxGeometry relative="1" as="geometry" />
        </mxCell>
        <mxCell id="9" value="" style="edgeStyle=orthogonalEdgeStyle;endArrow=block;" edge="1" parent="1" source="4" target="6">
          <mxGeometry relative="1" as="geometry" />
        </mxCell>
      </root>
    </mxGraphModel>
  </diagram>
</mxfile>
